<svg xmlns="http://www.w3.org/2000/svg" version="1.1" xmlns:xlink="http://www.w3.org/1999/xlink" xmlns:svgjs="http://svgjs.dev/svgjs" width="1440" height="640" preserveAspectRatio="none" viewBox="0 0 1440 640"><g mask="url(&quot;#SvgjsMask1102&quot;)" fill="none"><rect width="1440" height="640" x="0" y="0" fill="rgba(255, 249, 191, 1)"></rect><path d="M1512 640L0 640 L0 272.29Q93.91 246.2, 120 340.11Q126.38 226.49, 240 232.86Q306.22 179.08, 360 245.3Q376.24 189.54, 432 205.77Q447.68 149.45, 504 165.13Q546.88 136, 576 178.88Q642.35 173.22, 648 239.57Q736.77 208.34, 768 297.1Q855.46 264.56, 888 352.03Q918.99 311.02, 960 342.01Q987.38 297.39, 1032 324.78Q1018.58 239.36, 1104 225.93Q1134.55 184.48, 1176 215.02Q1224.9 191.93, 1248 240.83Q1306.33 227.16, 1320 285.48Q1373.63 267.11, 1392 320.74Q1445.07 253.81, 1512 306.88z" fill="rgba(253, 219, 187, 1)"></path><path d="M1488 640L0 640 L0 540.19Q3.57 471.76, 72 475.34Q88.84 420.18, 144 437.02Q183.45 356.47, 264 395.91Q287.63 347.55, 336 371.18Q354.63 317.81, 408 336.45Q494.49 302.94, 528 389.43Q621.43 410.86, 600 504.29Q581.7 365.99, 720 347.69Q750.52 306.21, 792 336.73Q840.22 312.95, 864 361.17Q903.79 280.97, 984 320.76Q1032.87 297.63, 1056 346.5Q1163.53 334.03, 1176 441.56Q1209.12 354.68, 1296 387.79Q1314.02 333.81, 1368 351.82Q1414.02 277.84, 1488 323.85z" fill="rgba(240, 193, 225, 1)"></path><path d="M1512 640L0 640 L0 497.47Q57.41 482.88, 72 540.29Q178.72 527.01, 192 633.73Q203.76 573.49, 264 585.25Q249.89 499.14, 336 485.04Q417.48 446.52, 456 528Q537.37 537.37, 528 618.74Q616.2 586.94, 648 675.14Q657.32 564.46, 768 573.78Q793.25 527.02, 840 552.27Q856.67 496.94, 912 513.61Q982.05 463.66, 1032 533.72Q1093.49 523.21, 1104 584.7Q1172.56 581.26, 1176 649.82Q1226.08 627.89, 1248 677.97Q1260.55 618.52, 1320 631.07Q1319.82 510.89, 1440 510.71Q1468.59 467.29, 1512 495.88z" fill="rgba(203, 157, 240, 1)"></path></g><defs><mask id="SvgjsMask1102"><rect width="1440" height="640" fill="#ffffff"></rect></mask></defs></svg>