<svg xmlns="http://www.w3.org/2000/svg" version="1.1" xmlns:xlink="http://www.w3.org/1999/xlink" xmlns:svgjs="http://svgjs.dev/svgjs" width="1440" height="560" preserveAspectRatio="none" viewBox="0 0 1440 560"><g mask="url(&quot;#SvgjsMask1016&quot;)" fill="none"><rect width="1440" height="560" x="0" y="0" fill="rgba(255, 246, 227, 1)"></rect><path d="M1024.97 333.67 a24.53 24.53 0 1 0 49.06 0 a24.53 24.53 0 1 0 -49.06 0z" fill="rgba(55, 60, 121, 1)"></path><path d="M962.76 156.39L998.21 156.39L998.21 191.84L962.76 191.84z" stroke="rgba(55, 60, 121, 1)"></path><path d="M335.66 520.48a11.66 11.66 0 1 0-23.29 1.13z" fill="#e73635"></path><path d="M1120.68 248.53L1162.37 248.53L1162.37 268L1120.68 268z" fill="#e73635"></path><path d="M388.12 69.75a54.24 54.24 0 1 0-108.4 4.08z" fill="rgba(205, 193, 255, 1)"></path><path d="M52.44 427.28L94 427.28L94 435.35L52.44 435.35z" fill="rgba(205, 193, 255, 1)"></path><path d="M266.71 459.93L294.35 459.93L294.35 492.63L266.71 492.63z" stroke="#e73635"></path><path d="M1374.15 155.87 a21.53 21.53 0 1 0 43.06 0 a21.53 21.53 0 1 0 -43.06 0z" stroke="rgba(55, 60, 121, 1)"></path><path d="M1312.43 105.08L1359.39 105.08L1359.39 152.04L1312.43 152.04z" fill="rgba(55, 60, 121, 1)"></path><path d="M1240.65 366.52L1257.31 366.52L1257.31 383.18L1240.65 383.18z" fill="rgba(205, 193, 255, 1)"></path><path d="M135.11 232.29 a11.51 11.51 0 1 0 23.02 0 a11.51 11.51 0 1 0 -23.02 0z" stroke="rgba(205, 193, 255, 1)"></path><path d="M640.52 30.24L650.76 30.24L650.76 73.92L640.52 73.92z" fill="rgba(255, 204, 234, 1)"></path><path d="M592.54 35.23L627.01 35.23L627.01 48.01L592.54 48.01z" fill="rgba(55, 60, 121, 1)"></path><path d="M209.15 397.91a48.42 48.42 0 1 0-77.15 58.54z" stroke="rgba(55, 60, 121, 1)"></path><path d="M59.55 309.4L71.67 309.4L71.67 321.52L59.55 321.52z" stroke="#e73635"></path><path d="M1411.78 435.49L1443.43 435.49L1443.43 444.18L1411.78 444.18z" fill="rgba(255, 204, 234, 1)"></path><path d="M55.87 78.41 a18.99 18.99 0 1 0 37.98 0 a18.99 18.99 0 1 0 -37.98 0z" stroke="rgba(55, 60, 121, 1)"></path><path d="M60.66 240.93L103.15 240.93L103.15 283.42L60.66 283.42z" fill="rgba(55, 60, 121, 1)"></path><path d="M22.84 506.46a50.1 50.1 0 1 0-1.38 100.2z" fill="rgba(255, 204, 234, 1)"></path><path d="M374.69 387.71 a8.83 8.83 0 1 0 17.66 0 a8.83 8.83 0 1 0 -17.66 0z" fill="rgba(55, 60, 121, 1)"></path><path d="M219.97 73.58a24.83 24.83 0 1 0-40.67-28.5z" stroke="rgba(255, 204, 234, 1)"></path><path d="M947.2 365.24L973.66 365.24L973.66 416.85L947.2 416.85z" fill="#e73635"></path><path d="M1108.48 388.76L1116.58 388.76L1116.58 396.86L1108.48 396.86z" fill="rgba(205, 193, 255, 1)"></path><path d="M314.22 454.4a54.4 54.4 0 1 0-103.13 34.69z" fill="rgba(255, 204, 234, 1)"></path><path d="M97.32 246.58 a45.39 45.39 0 1 0 90.78 0 a45.39 45.39 0 1 0 -90.78 0z" fill="#e73635"></path><path d="M1276.42 241.29a3.8 3.8 0 1 0 4.69-5.98z" stroke="#e73635"></path><path d="M600.52 376.72L641.88 376.72L641.88 418.08L600.52 418.08z" stroke="rgba(205, 193, 255, 1)"></path><path d="M1371.87 22.07L1381.81 22.07L1381.81 59.27L1371.87 59.27z" fill="rgba(255, 204, 234, 1)"></path><path d="M56.55 164.98L93.89 164.98L93.89 202.32L56.55 202.32z" stroke="rgba(55, 60, 121, 1)"></path><path d="M579.28 503.37a2.42 2.42 0 1 0-0.55 4.81z" stroke="rgba(255, 204, 234, 1)"></path><path d="M255.69 135.98 a47.47 47.47 0 1 0 94.94 0 a47.47 47.47 0 1 0 -94.94 0z" fill="rgba(255, 204, 234, 1)"></path><path d="M362.09 170.2a14 14 0 1 0 27.84-2.9z" fill="rgba(205, 193, 255, 1)"></path><path d="M684.11 484.76L706.3 484.76L706.3 506.95L684.11 506.95z" stroke="rgba(205, 193, 255, 1)"></path></g><defs><mask id="SvgjsMask1016"><rect width="1440" height="560" fill="#ffffff"></rect></mask></defs></svg>